<?xml version="1.0" encoding="UTF-8"?>
<!DOCTYPE svg PUBLIC "-//W3C//DTD SVG 1.1//EN" "http://www.w3.org/Graphics/SVG/1.1/DTD/svg11.dtd">
<svg version="1.1" xmlns="http://www.w3.org/2000/svg" xmlns:xlink="http://www.w3.org/1999/xlink" x="0" y="0" width="35.807" height="39.95" viewBox="0, 0, 35.807, 39.95">
  <g id="Layer_1" transform="translate(-2.947, -4.125)">
    <path d="M36.347,12.2 L23.447,4.8 C21.847,3.9 19.947,3.9 18.447,4.8 L5.447,12.2 C3.847,13.1 2.947,14.8 2.947,16.6 L2.947,31.5 C2.947,33.3 3.947,35 5.447,35.9 L18.347,43.4 C19.947,44.3 21.847,44.3 23.347,43.4 L36.247,35.9 C37.847,35 38.747,33.3 38.747,31.5 L38.747,16.6 C38.847,14.8 37.847,13.1 36.347,12.2 M32.747,20.8 C32.747,20.9 32.647,21 32.547,21.1 L21.747,27.3 C21.347,27.5 20.847,27.2 20.847,26.8 L20.847,23.5 C20.847,23.2 21.047,22.8 21.347,22.7 L27.547,19.1 C27.447,19 27.347,19 27.247,18.9 L22.147,16 C21.347,15.5 20.447,15.5 19.647,16 L14.547,18.9 C13.747,19.4 13.247,20.2 13.247,21.1 L13.247,27 C13.247,27.9 13.747,28.7 14.547,29.2 L19.647,32.1 C20.447,32.6 21.347,32.6 22.147,32.1 L32.547,26.1 C32.647,26 32.747,26.1 32.747,26.2 L32.747,28.7 C32.747,30.1 32.047,31.3 30.847,32 L22.747,36.7 C21.547,37.4 20.147,37.4 18.947,36.7 L10.847,32 C9.647,31.3 8.947,30.1 8.947,28.7 L8.947,19.3 C8.947,17.9 9.647,16.7 10.847,16 L18.947,11.3 C20.147,10.6 21.547,10.6 22.747,11.3 L30.847,16 C32.047,16.7 32.747,17.9 32.747,19.3 L32.747,20.8 z" fill="#F8991D"/>
  </g>
</svg>
