<?xml version="1.0" encoding="UTF-8" standalone="no"?>
<svg
        xmlns:dc="http://purl.org/dc/elements/1.1/"
        xmlns:cc="http://creativecommons.org/ns#"
        xmlns:rdf="http://www.w3.org/1999/02/22-rdf-syntax-ns#"
        xmlns="http://www.w3.org/2000/svg"
        id="svg8"
        version="1.1"
        viewBox="0 0 191.30008 54.128071"
        height="54.128071mm"
        width="191.30008mm">
  <defs
     id="defs2">
    <style
       id="style3801">.cls-1{fill:#434343;}.cls-2{fill:#e8eaf6;}.cls-3{fill:#231f20;}.cls-4{fill:#c5c9e6;}</style>
    <style
       id="style3924">.cls-1{fill:#182a3f;}.cls-2{fill:#2a4b80;}</style>
  </defs>
  <metadata
     id="metadata5">
    <rdf:RDF>
      <cc:Work
         rdf:about="">
        <dc:format>image/svg+xml</dc:format>
        <dc:type
           rdf:resource="http://purl.org/dc/dcmitype/StillImage" />
        <dc:title></dc:title>
      </cc:Work>
    </rdf:RDF>
  </metadata>
  <g
     transform="translate(-12.56771,-27.275252)"
     id="layer1">
    <g
       transform="matrix(0.13229167,0,0,0.13229166,12.56771,27.262961)"
       id="Layer_2"
       data-name="Layer 2">
      <g
         id="text">
        <path
           style="fill:#434343"
           class="cls-1"
           d="M 435.94,73.13 H 272 c -4.57,-4.57 -13.07,-8 -23.33,-9.3 a 25.43,25.43 0 0 0 -8.33,-9 l 21.61,-31.16 a 1.25,1.25 0 0 0 0.09,-0.18 10.6,10.6 0 1 0 -4.72,-3 l -22,31.77 a 25.32,25.32 0 0 0 -14.47,-1 L 200.43,19 a 1.29,1.29 0 0 0 -0.31,-0.33 10.52,10.52 0 1 0 -4.61,2.24 1.46,1.46 0 0 0 0.16,1.09 l 19.66,31.21 a 25.42,25.42 0 0 0 -11,10.35 c -11.59,0.94 -21.31,4.6 -26.32,9.6 h -164 A 14.1,14.1 0 0 0 0,87.19 v 308 a 14.1,14.1 0 0 0 14.06,14.06 H 435.94 A 14.1,14.1 0 0 0 450,395.16 v -308 A 14.1,14.1 0 0 0 435.94,73.13 Z"
           id="path3807" />
        <rect
           style="fill:#e8eaf6"
           class="cls-2"
           x="30.690001"
           y="100.3"
           width="388.62"
           height="283.14999"
           rx="12.87"
           ry="12.87"
           id="rect3809" />
        <path
           style="fill:#231f20"
           class="cls-3"
           d="m 406.43,101.25 a 12,12 0 0 1 11.93,11.93 v 257.4 a 12,12 0 0 1 -11.93,11.93 H 43.57 A 12,12 0 0 1 31.64,370.58 v -257.4 a 12,12 0 0 1 11.93,-11.93 h 362.86 m 0,-1.9 H 43.57 a 13.84,13.84 0 0 0 -13.82,13.82 v 257.4 a 13.84,13.84 0 0 0 13.82,13.83 h 362.86 a 13.84,13.84 0 0 0 13.82,-13.82 V 113.18 A 13.84,13.84 0 0 0 406.43,99.36 Z"
           id="path3811" />
        <path
           style="fill:#231f20"
           class="cls-3"
           d="m 406.43,101.25 a 12,12 0 0 1 11.93,11.93 v 257.4 a 12,12 0 0 1 -11.93,11.93 H 43.57 A 12,12 0 0 1 31.64,370.58 v -257.4 a 12,12 0 0 1 11.93,-11.93 h 362.86 m 0,-1.9 H 43.57 a 13.84,13.84 0 0 0 -13.82,13.82 v 257.4 a 13.84,13.84 0 0 0 13.82,13.83 h 362.86 a 13.84,13.84 0 0 0 13.82,-13.82 V 113.18 A 13.84,13.84 0 0 0 406.43,99.36 Z"
           id="path3813" />
        <path
           style="fill:#231f20"
           class="cls-3"
           d="m 413.64,103.23 -0.78,0.57 a 12.83,12.83 0 0 1 4.08,9.38 v 257.4 a 12.89,12.89 0 0 1 -12.87,12.87 H 41.2 a 12.81,12.81 0 0 1 -8.3,-3.05 l -0.78,0.57 a 13.75,13.75 0 0 0 9.08,3.43 h 362.86 a 13.84,13.84 0 0 0 13.82,-13.82 v -257.4 a 13.77,13.77 0 0 0 -4.24,-9.95 z"
           id="path3815" />
        <path
           style="fill:#c5c9e6"
           class="cls-4"
           d="m 406.43,382.5 a 12,12 0 0 0 11.93,-11.93 V 113.18 a 11.89,11.89 0 0 0 -3.92,-8.81 L 36.06,379.82 a 11.86,11.86 0 0 0 7.51,2.68 z"
           id="path3817" />
        <path
           style="fill:#e8eaf6"
           class="cls-2"
           d="M 406.43,101.25 H 43.57 a 12,12 0 0 0 -11.93,11.93 v 257.4 a 11.91,11.91 0 0 0 4.42,9.24 L 414.44,104.37 a 11.86,11.86 0 0 0 -8.01,-3.12 z"
           id="path3819" />
      </g>
    </g>
    <g
       transform="matrix(0.26458333,0,0,0.26458333,77.349327,44.77829)"
       id="Layer_2-7"
       data-name="Layer 2">
      <g
         id="text-9">
        <path
           style="fill:#182a3f"
           class="cls-1"
           d="m 89.92,69.69 a 113.87,113.87 0 0 1 -9.58,13.61 71.94,71.94 0 0 1 -12.15,11.78 60.11,60.11 0 0 1 -15,8.31 49.88,49.88 0 0 1 -18,3.16 42.82,42.82 0 0 1 -12.84,-1.8 A 25.34,25.34 0 0 1 12.53,99.16 24.58,24.58 0 0 1 6.26,89.39 42.16,42.16 0 0 1 4.05,74.95 87,87 0 0 1 5.22,61.72 101.24,101.24 0 0 1 8.92,46.36 87.08,87.08 0 0 1 15.63,30.9 60.82,60.82 0 0 1 25.74,17.33 46.79,46.79 0 0 1 39.65,7.7 43.27,43.27 0 0 1 57.83,4.05 a 31.32,31.32 0 0 1 10.94,1.6 17.67,17.67 0 0 1 6.71,4.23 14,14 0 0 1 3.4,6.12 27.56,27.56 0 0 1 0.92,7.15 34.92,34.92 0 0 1 -3.8,16.06 42.9,42.9 0 0 1 -10.16,13 52.62,52.62 0 0 1 -14.64,8.95 54.14,54.14 0 0 1 -17.21,4 q -0.2,2.24 -0.34,4.23 -0.14,1.99 -0.15,3.74 a 31.12,31.12 0 0 0 0.92,8.31 11.75,11.75 0 0 0 2.72,5.11 9.64,9.64 0 0 0 4.47,2.58 24,24 0 0 0 6.27,0.73 34.82,34.82 0 0 0 10.75,-1.56 37.54,37.54 0 0 0 9,-4.28 50.49,50.49 0 0 0 7.93,-6.42 Q 79.3,73.91 83.1,69.72 Z M 35.56,55.59 a 26.67,26.67 0 0 0 10.89,-3.21 33.14,33.14 0 0 0 9.24,-7.38 36.44,36.44 0 0 0 6.37,-10.31 31.25,31.25 0 0 0 2.38,-12 13.89,13.89 0 0 0 -1.07,-5.93 3.93,3.93 0 0 0 -3.89,-2.24 q -3.79,0 -7.44,3.65 a 41.85,41.85 0 0 0 -6.86,9.48 81.36,81.36 0 0 0 -5.68,13.21 116.72,116.72 0 0 0 -3.94,14.73 z"
           id="path3930" />
        <path
           style="fill:#182a3f"
           class="cls-1"
           d="m 241.24,69.69 q -4.18,12.25 -9,19.55 a 46.58,46.58 0 0 1 -9.72,11.13 26,26 0 0 1 -9.63,5 36.43,36.43 0 0 1 -8.7,1.17 28.46,28.46 0 0 1 -11.09,-1.9 19.17,19.17 0 0 1 -7.2,-5.06 19.51,19.51 0 0 1 -3.9,-7.18 28.63,28.63 0 0 1 -1.22,-8.31 58.84,58.84 0 0 1 1.41,-11.82 q 1.41,-6.76 3.06,-13.86 1.65,-7.1 3.06,-13.71 a 55.83,55.83 0 0 0 1.41,-11.38 q 0,-10.21 -7.2,-10.21 a 9.37,9.37 0 0 0 -5.06,1.46 16.76,16.76 0 0 0 -4.28,3.94 29.43,29.43 0 0 0 -3.5,5.83 56.19,56.19 0 0 0 -2.72,7.15 l -13.52,63.89 h -28.7 l 14.59,-68.75 a 20.38,20.38 0 0 0 0.58,-5 17.92,17.92 0 0 0 -0.29,-3.31 8.34,8.34 0 0 0 -1,-2.77 5.93,5.93 0 0 0 -1.85,-1.95 5.16,5.16 0 0 0 -2.87,-0.73 10.45,10.45 0 0 0 -5.4,1.46 16.12,16.12 0 0 0 -4.47,4 29,29 0 0 0 -3.55,5.93 58.92,58.92 0 0 0 -2.72,7.2 l -13.52,63.89 H 75.53 L 96.63,5.8 h 28.69 l -2.14,10.31 a 35.73,35.73 0 0 1 6.42,-5.79 31.89,31.89 0 0 1 6.32,-3.4 28.07,28.07 0 0 1 6,-1.65 37.45,37.45 0 0 1 5.54,-0.44 27.78,27.78 0 0 1 7.29,0.92 16.94,16.94 0 0 1 6,3 17.61,17.61 0 0 1 4.47,5.3 24.06,24.06 0 0 1 2.63,7.93 43.19,43.19 0 0 1 7.45,-8.98 33.38,33.38 0 0 1 7.39,-5.11 26.29,26.29 0 0 1 6.9,-2.33 34.94,34.94 0 0 1 6,-0.58 29.36,29.36 0 0 1 8.8,1.26 18.32,18.32 0 0 1 7,4 18.26,18.26 0 0 1 4.62,7 28.35,28.35 0 0 1 1.65,10.21 55.37,55.37 0 0 1 -0.66,8.65 q -0.73,4.62 -1.75,9.43 -1.02,4.81 -2.28,9.58 -1.27,4.77 -2.29,9.14 -1.02,4.37 -1.75,8.12 a 34.92,34.92 0 0 0 -0.73,6.56 10,10 0 0 0 1.7,6 q 1.7,2.33 6.27,2.33 a 12.05,12.05 0 0 0 5.62,-1.26 14.28,14.28 0 0 0 4.38,-3.6 28,28 0 0 0 3.55,-5.59 q 1.61,-3.26 3.16,-7.15 z"
           id="path3932" />
        <path
           style="fill:#182a3f"
           class="cls-1"
           d="m 391,69.69 q -4.18,12.25 -9,19.55 a 46.58,46.58 0 0 1 -9.72,11.13 26,26 0 0 1 -9.63,5 36.43,36.43 0 0 1 -8.7,1.17 28.46,28.46 0 0 1 -11.09,-1.9 19.17,19.17 0 0 1 -7.2,-5.06 19.51,19.51 0 0 1 -3.94,-7.2 28.63,28.63 0 0 1 -1.22,-8.31 58.84,58.84 0 0 1 1.41,-11.82 q 1.41,-6.76 3.06,-13.86 1.65,-7.1 3.03,-13.69 a 55.83,55.83 0 0 0 1.41,-11.38 q 0,-10.21 -7.2,-10.21 a 9.37,9.37 0 0 0 -5.06,1.46 16.76,16.76 0 0 0 -4.28,3.94 29.43,29.43 0 0 0 -3.5,5.83 56.19,56.19 0 0 0 -2.72,7.15 l -13.52,63.89 H 274.5 l 14.59,-68.75 a 20.38,20.38 0 0 0 0.58,-5 17.92,17.92 0 0 0 -0.29,-3.31 8.34,8.34 0 0 0 -1,-2.77 5.93,5.93 0 0 0 -1.85,-1.95 5.16,5.16 0 0 0 -2.87,-0.73 10.45,10.45 0 0 0 -5.4,1.46 16.12,16.12 0 0 0 -4.47,4 29,29 0 0 0 -3.55,5.93 58.92,58.92 0 0 0 -2.72,7.2 L 254,105.38 H 225.29 L 246.39,5.8 h 28.69 l -2.14,10.31 a 35.73,35.73 0 0 1 6.42,-5.79 31.89,31.89 0 0 1 6.32,-3.4 28.07,28.07 0 0 1 6,-1.65 37.45,37.45 0 0 1 5.54,-0.44 27.78,27.78 0 0 1 7.29,0.92 16.94,16.94 0 0 1 6,3 17.61,17.61 0 0 1 4.49,5.25 24.06,24.06 0 0 1 2.63,7.93 43.19,43.19 0 0 1 7.39,-8.9 33.38,33.38 0 0 1 7.39,-5.11 26.29,26.29 0 0 1 6.9,-2.33 34.94,34.94 0 0 1 6,-0.58 29.36,29.36 0 0 1 8.8,1.26 18.32,18.32 0 0 1 7,4 18.26,18.26 0 0 1 4.62,7 28.35,28.35 0 0 1 1.65,10.21 55.37,55.37 0 0 1 -0.73,8.61 q -0.65,4.63 -1.65,9.44 -1,4.81 -2.29,9.58 -1.27,4.77 -2.29,9.14 -1.02,4.37 -1.75,8.12 a 34.92,34.92 0 0 0 -0.73,6.56 10,10 0 0 0 1.7,6 q 1.7,2.33 6.27,2.33 a 12.05,12.05 0 0 0 5.64,-1.26 14.28,14.28 0 0 0 4.38,-3.6 28,28 0 0 0 3.55,-5.59 q 1.61,-3.26 3.16,-7.15 z"
           id="path3934" />
        <path
           style="fill:#182a3f"
           class="cls-1"
           d="m 463.93,73.49 a 20,20 0 0 0 -0.68,3.26 26.08,26.08 0 0 0 -0.19,3.16 q 0,4.18 2,5.79 2,1.61 6.18,1.6 a 13.61,13.61 0 0 0 2.43,-0.19 6.26,6.26 0 0 0 1.94,-0.68 q -2,5.16 -3.89,8.95 a 27,27 0 0 1 -4.08,6.27 14.42,14.42 0 0 1 -5.11,3.7 17.26,17.26 0 0 1 -6.76,1.22 q -8.27,0 -13.32,-4.81 -5.05,-4.81 -6.22,-13.66 a 56.76,56.76 0 0 1 -5.2,6.71 41.18,41.18 0 0 1 -6.61,5.93 32.73,32.73 0 0 1 -8.12,4.23 28.61,28.61 0 0 1 -9.72,1.6 30.05,30.05 0 0 1 -9.92,-1.65 21.57,21.57 0 0 1 -8.46,-5.45 27.48,27.48 0 0 1 -5.93,-9.92 43.94,43.94 0 0 1 -2.24,-15 84.88,84.88 0 0 1 1.34,-14.55 92.3,92.3 0 0 1 4.18,-15.56 88.36,88.36 0 0 1 7,-14.93 59.85,59.85 0 0 1 9.92,-12.64 45.34,45.34 0 0 1 12.89,-8.75 38,38 0 0 1 15.85,-3.26 q 8.46,0 12.3,2.92 a 8.75,8.75 0 0 1 3.84,7.2 v 1.42 l 2.14,-10.6 h 28.69 z M 445.55,24.77 a 8,8 0 0 0 -0.39,-2.19 7.9,7.9 0 0 0 -1.31,-2.58 7.46,7.46 0 0 0 -2.48,-2 8.48,8.48 0 0 0 -4,-0.83 13.26,13.26 0 0 0 -7.93,2.72 29.49,29.49 0 0 0 -6.86,7.25 57.78,57.78 0 0 0 -5.54,10.26 99.68,99.68 0 0 0 -6.71,23.78 72.5,72.5 0 0 0 -0.87,10.55 28.45,28.45 0 0 0 1.07,8.85 12,12 0 0 0 2.58,4.62 6,6 0 0 0 3.26,1.8 19.18,19.18 0 0 0 3.11,0.29 11.48,11.48 0 0 0 4.72,-1.12 17.07,17.07 0 0 0 4.8,-3.3 24.24,24.24 0 0 0 4.18,-5.49 27.26,27.26 0 0 0 2.82,-7.69 z"
           id="path3936" />
        <path
           style="fill:#2a4b80"
           class="cls-2"
           d="M 85.87,65.64 A 113.89,113.89 0 0 1 76.29,79.25 72,72 0 0 1 64.13,91 a 60.11,60.11 0 0 1 -15,8.31 49.88,49.88 0 0 1 -18,3.16 42.82,42.82 0 0 1 -12.84,-1.8 A 25.34,25.34 0 0 1 8.47,95.08 24.59,24.59 0 0 1 2.2,85.31 42.17,42.17 0 0 1 0,70.89 87.06,87.06 0 0 1 1.17,57.67 101.25,101.25 0 0 1 4.86,42.3 87.09,87.09 0 0 1 11.57,26.84 60.82,60.82 0 0 1 21.69,13.27 46.79,46.79 0 0 1 35.59,3.65 43.27,43.27 0 0 1 53.78,0 a 31.32,31.32 0 0 1 10.94,1.6 17.67,17.67 0 0 1 6.71,4.23 14,14 0 0 1 3.4,6.08 27.56,27.56 0 0 1 0.92,7.15 34.92,34.92 0 0 1 -3.75,16.09 42.9,42.9 0 0 1 -10.16,13 52.62,52.62 0 0 1 -14.64,8.95 54.14,54.14 0 0 1 -17.21,4 q -0.2,2.24 -0.34,4.23 -0.14,1.99 -0.18,3.67 a 31.12,31.12 0 0 0 0.92,8.31 11.75,11.75 0 0 0 2.72,5.11 9.64,9.64 0 0 0 4.48,2.58 24,24 0 0 0 6.27,0.73 34.82,34.82 0 0 0 10.74,-1.51 37.54,37.54 0 0 0 9,-4.28 50.49,50.49 0 0 0 7.93,-6.42 q 3.74,-3.69 7.54,-7.88 z M 31.51,51.54 A 26.67,26.67 0 0 0 42.4,48.33 33.13,33.13 0 0 0 51.64,41 36.44,36.44 0 0 0 58,30.68 a 31.25,31.25 0 0 0 2.38,-12 13.89,13.89 0 0 0 -1.07,-5.93 3.93,3.93 0 0 0 -3.89,-2.24 q -3.79,0 -7.44,3.65 a 41.85,41.85 0 0 0 -6.86,9.48 81.36,81.36 0 0 0 -5.69,13.18 116.7,116.7 0 0 0 -3.92,14.72 z"
           id="path3938" />
        <path
           style="fill:#2a4b80"
           class="cls-2"
           d="m 237.19,65.64 q -4.18,12.25 -9,19.55 a 46.58,46.58 0 0 1 -9.72,11.13 26,26 0 0 1 -9.63,5 36.43,36.43 0 0 1 -8.7,1.17 28.46,28.46 0 0 1 -11.14,-1.89 19.17,19.17 0 0 1 -7.2,-5.06 19.51,19.51 0 0 1 -3.94,-7.2 28.63,28.63 0 0 1 -1.16,-8.34 58.84,58.84 0 0 1 1.41,-11.82 q 1.41,-6.76 3.06,-13.86 1.65,-7.1 3.06,-13.71 a 55.83,55.83 0 0 0 1.41,-11.38 q 0,-10.21 -7.2,-10.21 a 9.36,9.36 0 0 0 -5.06,1.46 16.75,16.75 0 0 0 -4.28,3.94 29.43,29.43 0 0 0 -3.5,5.83 56.21,56.21 0 0 0 -2.72,7.15 l -13.52,63.89 h -28.68 l 14.59,-68.75 a 20.38,20.38 0 0 0 0.58,-5 17.92,17.92 0 0 0 -0.29,-3.31 8.34,8.34 0 0 0 -1,-2.77 5.92,5.92 0 0 0 -1.85,-1.95 5.16,5.16 0 0 0 -2.87,-0.73 10.45,10.45 0 0 0 -5.4,1.46 16.12,16.12 0 0 0 -4.47,4 29,29 0 0 0 -3.55,5.93 58.94,58.94 0 0 0 -2.72,7.2 l -13.52,63.89 H 71.48 L 92.58,1.75 h 28.69 l -2.14,10.31 a 35.73,35.73 0 0 1 6.42,-5.79 31.89,31.89 0 0 1 6.32,-3.4 28.07,28.07 0 0 1 6,-1.65 37.45,37.45 0 0 1 5.54,-0.44 27.78,27.78 0 0 1 7.29,0.92 16.94,16.94 0 0 1 6,3 17.61,17.61 0 0 1 4.47,5.3 24.06,24.06 0 0 1 2.63,7.93 43.19,43.19 0 0 1 7.45,-8.93 33.38,33.38 0 0 1 7.39,-5.11 26.29,26.29 0 0 1 6.9,-2.33 34.94,34.94 0 0 1 6,-0.58 29.36,29.36 0 0 1 8.8,1.26 18.32,18.32 0 0 1 7,4 18.26,18.26 0 0 1 4.62,7 28.34,28.34 0 0 1 1.65,10.21 55.38,55.38 0 0 1 -0.73,8.61 q -0.73,4.62 -1.75,9.43 -1.02,4.81 -2.29,9.58 -1.27,4.77 -2.29,9.14 -1.02,4.37 -1.75,8.12 a 34.91,34.91 0 0 0 -0.73,6.56 10,10 0 0 0 1.7,6 q 1.7,2.33 6.27,2.33 a 12.05,12.05 0 0 0 5.7,-1.22 14.28,14.28 0 0 0 4.38,-3.6 28,28 0 0 0 3.55,-5.59 q 1.6,-3.26 3.16,-7.15 z"
           id="path3940" />
        <path
           style="fill:#2a4b80"
           class="cls-2"
           d="m 386.95,65.64 q -4.18,12.25 -9,19.55 a 46.58,46.58 0 0 1 -9.72,11.13 26,26 0 0 1 -9.63,5 36.43,36.43 0 0 1 -8.7,1.17 28.46,28.46 0 0 1 -11.09,-1.9 19.17,19.17 0 0 1 -7.2,-5.06 19.51,19.51 0 0 1 -3.94,-7.2 28.63,28.63 0 0 1 -1.21,-8.33 58.84,58.84 0 0 1 1.41,-11.82 q 1.41,-6.76 3.06,-13.86 1.65,-7.1 3.07,-13.67 a 55.83,55.83 0 0 0 1.41,-11.38 q 0,-10.21 -7.2,-10.21 a 9.36,9.36 0 0 0 -5.06,1.46 16.75,16.75 0 0 0 -4.28,3.94 29.43,29.43 0 0 0 -3.5,5.83 56.21,56.21 0 0 0 -2.72,7.15 l -13.52,63.89 H 270.44 L 285,32.58 a 20.38,20.38 0 0 0 0.58,-5 17.92,17.92 0 0 0 -0.29,-3.31 8.34,8.34 0 0 0 -1,-2.77 5.92,5.92 0 0 0 -1.85,-1.95 5.16,5.16 0 0 0 -2.87,-0.73 10.45,10.45 0 0 0 -5.4,1.46 16.12,16.12 0 0 0 -4.47,4 29,29 0 0 0 -3.55,5.93 58.94,58.94 0 0 0 -2.72,7.2 L 249.91,101.3 H 221.24 L 242.34,1.72 H 271 l -2.14,10.31 a 35.73,35.73 0 0 1 6.42,-5.79 31.89,31.89 0 0 1 6.32,-3.4 28.07,28.07 0 0 1 6,-1.65 37.45,37.45 0 0 1 5.6,-0.41 27.78,27.78 0 0 1 7.29,0.92 16.94,16.94 0 0 1 6,3 17.61,17.61 0 0 1 4.51,5.3 24.06,24.06 0 0 1 2.63,7.93 A 43.19,43.19 0 0 1 321,9 a 33.38,33.38 0 0 1 7.39,-5.11 26.29,26.29 0 0 1 6.9,-2.33 34.94,34.94 0 0 1 6,-0.58 29.36,29.36 0 0 1 8.8,1.26 18.32,18.32 0 0 1 7,4 18.26,18.26 0 0 1 4.62,7 28.34,28.34 0 0 1 1.65,10.21 55.38,55.38 0 0 1 -0.73,8.61 q -0.73,4.62 -1.75,9.43 -1.02,4.81 -2.29,9.58 -1.27,4.77 -2.29,9.14 -1.02,4.37 -1.75,8.12 a 34.91,34.91 0 0 0 -0.73,6.56 10,10 0 0 0 1.7,6 q 1.7,2.33 6.27,2.33 a 12.05,12.05 0 0 0 5.71,-1.22 14.28,14.28 0 0 0 4.38,-3.6 28,28 0 0 0 3.55,-5.59 q 1.61,-3.26 3.16,-7.15 z"
           id="path3942" />
        <path
           style="fill:#2a4b80"
           class="cls-2"
           d="m 459.88,69.43 a 20,20 0 0 0 -0.68,3.26 26.08,26.08 0 0 0 -0.19,3.16 q 0,4.18 2,5.79 2,1.61 6.18,1.6 a 13.61,13.61 0 0 0 2.41,-0.24 6.25,6.25 0 0 0 1.94,-0.68 q -2,5.16 -3.89,8.95 a 27,27 0 0 1 -4.08,6.27 14.43,14.43 0 0 1 -5.11,3.7 17.26,17.26 0 0 1 -6.76,1.22 q -8.27,0 -13.32,-4.81 -5.05,-4.81 -6.22,-13.65 a 56.78,56.78 0 0 1 -5.2,6.71 41.18,41.18 0 0 1 -6.61,5.93 32.72,32.72 0 0 1 -8.12,4.23 28.61,28.61 0 0 1 -9.72,1.6 30.05,30.05 0 0 1 -9.92,-1.65 21.57,21.57 0 0 1 -8.46,-5.45 27.48,27.48 0 0 1 -5.93,-9.92 43.94,43.94 0 0 1 -2.24,-15 84.88,84.88 0 0 1 1.36,-14.59 92.3,92.3 0 0 1 4.18,-15.56 88.35,88.35 0 0 1 7,-14.93 59.85,59.85 0 0 1 9.92,-12.64 A 45.34,45.34 0 0 1 411.35,4 38,38 0 0 1 427.2,0.78 q 8.46,0 12.3,2.92 a 8.75,8.75 0 0 1 3.84,7.2 v 1.46 l 2.14,-10.6 h 28.69 z M 441.5,20.71 a 8,8 0 0 0 -0.39,-2.19 7.9,7.9 0 0 0 -1.31,-2.52 7.45,7.45 0 0 0 -2.48,-2 8.48,8.48 0 0 0 -4,-0.83 13.26,13.26 0 0 0 -7.93,2.72 29.49,29.49 0 0 0 -6.86,7.25 57.78,57.78 0 0 0 -5.53,10.22 99.67,99.67 0 0 0 -6.71,23.78 72.51,72.51 0 0 0 -0.87,10.55 28.45,28.45 0 0 0 1.07,8.85 12,12 0 0 0 2.58,4.62 6,6 0 0 0 3.26,1.8 19.18,19.18 0 0 0 3.11,0.29 11.48,11.48 0 0 0 4.72,-1.12 17.07,17.07 0 0 0 4.77,-3.31 24.23,24.23 0 0 0 4.18,-5.49 27.25,27.25 0 0 0 2.89,-7.69 z"
           id="path3944" />
      </g>
    </g>
  </g>
</svg>
