<svg xmlns="http://www.w3.org/2000/svg" viewBox="0 0 800 800"><defs><style>.cls-1{fill:#e8eaf6;}.cls-2{fill:#434343;}.cls-3{fill:#231f20;}.cls-4{fill:#c5c9e6;}.cls-5{fill:#a0a8d5;}.cls-6{fill:#7b86c2;}.cls-7{fill:#5e6bb2;}.cls-8{fill:#33439b;}.cls-9{fill:#e4f2fb;}.cls-10{fill:#253b64;}.cls-11{fill:#182a3f;}.cls-12{fill:#2a4b80;}.cls-13{fill:#fff;}</style></defs><title>EMMA circle</title><g id="Layer_2" data-name="Layer 2"><g id="text"><circle class="cls-1" cx="400" cy="400" r="400"/><rect class="cls-2" x="119.39" y="189.34" width="561.21" height="419.16" rx="17.54" ry="17.54"/><circle class="cls-2" cx="401.75" cy="192.85" r="31.57"/><ellipse class="cls-2" cx="418.41" cy="198.99" rx="44.72" ry="21.92"/><ellipse class="cls-2" cx="381.59" cy="198.99" rx="44.72" ry="21.92"/><circle class="cls-2" cx="449.98" cy="114.81" r="13.15"/><path class="cls-2" d="M444.49,123.69c1.59,1.1,2.29,2.86,1.55,3.92l-41.31,59.57c-.74,1.06-2.62,1-4.21-.08s-2.29-2.86-1.55-3.92l41.31-59.57C441,122.56,442.9,122.59,444.49,123.69Z"/><path class="cls-2" d="M365.14,121.69c1.64-1,3.53-1,4.21.11L408,183.14c.69,1.09-.08,2.82-1.72,3.85s-3.53,1-4.21-.11l-38.63-61.34C362.73,124.44,363.5,122.72,365.14,121.69Z"/><circle class="cls-2" cx="360.54" cy="111.3" r="13.15"/><path class="cls-1" d="M173.73,223.24H626.27a16.05,16.05,0,0,1,16.05,16.05v321a16.05,16.05,0,0,1-16.05,16.05H173.73a16.06,16.06,0,0,1-16.06-16.06v-321a16.06,16.06,0,0,1,16.06-16.06Z"/><path class="cls-3" d="M626.27,224.42a14.92,14.92,0,0,1,14.87,14.87v321a14.92,14.92,0,0,1-14.87,14.87H173.73a14.92,14.92,0,0,1-14.87-14.87v-321a14.92,14.92,0,0,1,14.87-14.87H626.27m0-2.37H173.73a17.26,17.26,0,0,0-17.24,17.24v321a17.26,17.26,0,0,0,17.24,17.24H626.27a17.26,17.26,0,0,0,17.24-17.24v-321a17.26,17.26,0,0,0-17.24-17.24Z"/><path class="cls-4" d="M641,493V449.11c-51-12-138.1-19.88-235.74-19.88-104.54,0-196.26,9-246.26,22.49V493Z"/><path class="cls-5" d="M641,526V481.84C590,469.83,502.9,462,405.26,462,300.72,462,209,471,159,484.46V526Z"/><path class="cls-6" d="M641,557V514.58c-51-12-138.1-19.88-235.74-19.88-104.54,0-196.26,9-246.26,22.49V557Z"/><path class="cls-7" d="M641,591V547.32c-51-12-138.1-19.88-235.74-19.88-104.54,0-196.26,9-246.26,22.49V591Z"/><path class="cls-3" d="M626.27,224.42a14.92,14.92,0,0,1,14.87,14.87v321a14.92,14.92,0,0,1-14.87,14.87H173.73a14.92,14.92,0,0,1-14.87-14.87v-321a14.92,14.92,0,0,1,14.87-14.87H626.27m0-2.37H173.73a17.26,17.26,0,0,0-17.24,17.24v321a17.26,17.26,0,0,0,17.24,17.24H626.27a17.26,17.26,0,0,0,17.24-17.24v-321a17.26,17.26,0,0,0-17.24-17.24Z"/><circle class="cls-4" cx="400" cy="404.19" r="165.11"/><circle class="cls-6" cx="400" cy="404.19" r="157.43"/><path class="cls-8" d="M461.43,321.48a210.48,210.48,0,0,0-37.65-58.13,143.52,143.52,0,0,1,78.39,39.79A197.24,197.24,0,0,1,461.43,321.48ZM423.78,547.35a143.52,143.52,0,0,0,78.39-39.79,197.24,197.24,0,0,0-40.74-18.35A210.48,210.48,0,0,1,423.78,547.35ZM323.71,412.26H257.53a143.12,143.12,0,0,0,33,84.82,209.34,209.34,0,0,1,45.24-20.83A210.68,210.68,0,0,1,323.71,412.26Zm54.81-148.91a143.52,143.52,0,0,0-78.39,39.79,197.23,197.23,0,0,0,40.74,18.35A210.48,210.48,0,0,1,378.52,263.35Zm-42.77,71.1a209.34,209.34,0,0,1-45.24-20.83,143.12,143.12,0,0,0-33,84.82h66.18A210.68,210.68,0,0,1,335.75,334.45ZM300.13,507.56a143.52,143.52,0,0,0,78.39,39.79,210.48,210.48,0,0,1-37.65-58.13A197.23,197.23,0,0,0,300.13,507.56ZM447.88,325.28A198.23,198.23,0,0,0,408.06,267v63.72A197.76,197.76,0,0,0,447.88,325.28ZM354.43,485.41a198.23,198.23,0,0,0,39.82,58.28V480A197.76,197.76,0,0,0,354.43,485.41Zm112.13-9.16a209.34,209.34,0,0,1,45.24,20.83,143.12,143.12,0,0,0,33-84.82H478.59A210.68,210.68,0,0,1,466.55,476.25Zm-58.49,67.45a198.23,198.23,0,0,0,39.82-58.28A197.76,197.76,0,0,0,408.06,480Zm70.53-145.26h66.18a143.12,143.12,0,0,0-33-84.82,209.34,209.34,0,0,1-45.24,20.83A210.68,210.68,0,0,1,478.59,398.43Zm-70.53,67.7a213.06,213.06,0,0,1,45.08,6.26,195.94,195.94,0,0,0,11.62-60.14H408.06ZM394.24,344.56a213.06,213.06,0,0,1-45.08-6.26,195.94,195.94,0,0,0-11.62,60.14h56.69Zm70.52,53.88a195.94,195.94,0,0,0-11.62-60.14,213.06,213.06,0,0,1-45.08,6.26v53.88ZM394.24,267a198.23,198.23,0,0,0-39.82,58.28,197.76,197.76,0,0,0,39.82,5.44ZM337.55,412.26a196,196,0,0,0,11.62,60.14,213.06,213.06,0,0,1,45.08-6.26V412.26Z"/><path class="cls-9" d="M459.13,319.18A210.47,210.47,0,0,0,421.48,261a143.52,143.52,0,0,1,78.39,39.79A197.23,197.23,0,0,1,459.13,319.18ZM421.48,545a143.52,143.52,0,0,0,78.39-39.79,197.23,197.23,0,0,0-40.74-18.35A210.47,210.47,0,0,1,421.48,545ZM321.41,410H255.23a143.12,143.12,0,0,0,33,84.82,209.33,209.33,0,0,1,45.24-20.83A210.68,210.68,0,0,1,321.41,410ZM376.22,261a143.52,143.52,0,0,0-78.39,39.79,197.23,197.23,0,0,0,40.74,18.35A210.48,210.48,0,0,1,376.22,261Zm-42.77,71.1a209.33,209.33,0,0,1-45.24-20.83,143.12,143.12,0,0,0-33,84.82h66.18A210.68,210.68,0,0,1,333.45,332.14ZM297.83,505.26A143.52,143.52,0,0,0,376.22,545a210.48,210.48,0,0,1-37.65-58.13A197.23,197.23,0,0,0,297.83,505.26ZM445.57,323a198.23,198.23,0,0,0-39.82-58.28v63.72A197.76,197.76,0,0,0,445.57,323ZM352.12,483.11a198.23,198.23,0,0,0,39.82,58.28V477.67A197.76,197.76,0,0,0,352.12,483.11Zm112.13-9.16a209.33,209.33,0,0,1,45.24,20.83,143.12,143.12,0,0,0,33-84.82H476.29A210.68,210.68,0,0,1,464.25,473.94Zm-58.49,67.45a198.23,198.23,0,0,0,39.82-58.28,197.76,197.76,0,0,0-39.82-5.44Zm70.53-145.26h66.18a143.12,143.12,0,0,0-33-84.82,209.33,209.33,0,0,1-45.24,20.83A210.68,210.68,0,0,1,476.29,396.13Zm-70.53,67.7a213.06,213.06,0,0,1,45.08,6.26A195.94,195.94,0,0,0,462.45,410H405.76ZM391.94,342.25A213.06,213.06,0,0,1,346.86,336a195.94,195.94,0,0,0-11.62,60.14h56.69Zm70.52,53.88A195.94,195.94,0,0,0,450.84,336a213.06,213.06,0,0,1-45.08,6.26v53.88ZM391.94,264.7A198.23,198.23,0,0,0,352.12,323a197.76,197.76,0,0,0,39.82,5.44ZM335.24,410a196,196,0,0,0,11.62,60.14,213.06,213.06,0,0,1,45.08-6.26V410Z"/><polygon class="cls-10" points="64.54 443.74 119.17 443.74 119.17 595.14 64.54 595.14 87.3 519.44 64.54 443.74"/><polygon class="cls-10" points="735.46 595.14 680.84 595.14 680.84 443.74 735.46 443.74 712.7 519.44 735.46 595.14"/><polygon class="cls-11" points="119.17 443.74 119.22 472.42 94.98 467.01 119.17 443.74"/><polygon class="cls-11" points="680.89 443.74 680.84 472.42 705.07 467.01 680.89 443.74"/><path class="cls-12" d="M705,617.85a1949.82,1949.82,0,0,1-610,0V467a1949.8,1949.8,0,0,0,610,0Z"/><path class="cls-11" d="M261.85,580.23A90,90,0,0,1,253,591.92a55.56,55.56,0,0,1-11.22,9.66A47,47,0,0,1,228,607.63a42.59,42.59,0,0,1-16.62.78,41.56,41.56,0,0,1-11.82-3.31,28,28,0,0,1-9-6.49,27.66,27.66,0,0,1-5.77-9.91,41.94,41.94,0,0,1-2-13.66A77.75,77.75,0,0,1,183.79,563a84.62,84.62,0,0,1,3.4-13.68,68.51,68.51,0,0,1,6.17-13.36,45.91,45.91,0,0,1,9.3-11.19,36.49,36.49,0,0,1,12.8-7.15,38.77,38.77,0,0,1,16.76-1.26A31.55,31.55,0,0,1,242.32,519a19.13,19.13,0,0,1,6.19,4.59,14.8,14.8,0,0,1,3.14,6,26.54,26.54,0,0,1,.85,6.7,30.09,30.09,0,0,1-3.5,14.5,33.56,33.56,0,0,1-9.38,11,40.93,40.93,0,0,1-13.5,6.66A45.26,45.26,0,0,1,210.27,570q-.18,2-.31,3.87t-.13,3.44a30.19,30.19,0,0,0,.85,7.8,12.76,12.76,0,0,0,2.51,5.06,10.54,10.54,0,0,0,4.12,2.93,23.22,23.22,0,0,0,5.78,1.42,29.07,29.07,0,0,0,18.2-3.21,39.22,39.22,0,0,0,7.31-5.12q3.46-3,7-6.55ZM211.7,561.36a22.21,22.21,0,0,0,10-1.65,25.41,25.41,0,0,0,8.52-5.73,28.62,28.62,0,0,0,5.87-8.83,27.07,27.07,0,0,0,2.2-10.85,13.66,13.66,0,0,0-1-5.6,4.18,4.18,0,0,0-3.59-2.49q-3.5-.41-6.86,2.54a32.39,32.39,0,0,0-6.32,8,65.4,65.4,0,0,0-5.24,11.5A98,98,0,0,0,211.7,561.36Z"/><path class="cls-11" d="M402,587a79.78,79.78,0,0,1-8.34,18.05,42.25,42.25,0,0,1-9,10.22,23.42,23.42,0,0,1-8.93,4.5,32.86,32.86,0,0,1-8.07.92,26.35,26.35,0,0,1-10.28-2,18.47,18.47,0,0,1-6.67-4.89A18.83,18.83,0,0,1,347,607a26.8,26.8,0,0,1-1.13-7.73,53.62,53.62,0,0,1,1.31-10.87q1.3-6.2,2.84-12.7t2.84-12.58a50.9,50.9,0,0,0,1.31-10.47q0-9.44-6.67-9.67a8.49,8.49,0,0,0-4.69,1.17,14.62,14.62,0,0,0-4,3.47,25.6,25.6,0,0,0-3.24,5.25,49.59,49.59,0,0,0-2.52,6.49q-6.26,29.23-12.52,58.4Q307.3,617,294,616q6.75-31.27,13.5-62.6a18.36,18.36,0,0,0,.54-4.55,16.89,16.89,0,0,0-.27-3.07,8.18,8.18,0,0,0-.95-2.62,6.05,6.05,0,0,0-1.71-1.91,5.06,5.06,0,0,0-2.66-.86,9.3,9.3,0,0,0-5,1,13.45,13.45,0,0,0-4.14,3.38,24.25,24.25,0,0,0-3.28,5.23,50.33,50.33,0,0,0-2.52,6.45q-6.25,29-12.5,58-13.26-1.18-26.5-2.6,9.74-45,19.49-90.07Q281.3,523,294.57,524l-2,9.38a29.94,29.94,0,0,1,5.94-4.91,27.54,27.54,0,0,1,5.85-2.74,25.36,25.36,0,0,1,5.58-1.16,35.45,35.45,0,0,1,5.13-.09,26.94,26.94,0,0,1,6.75,1.24,16.91,16.91,0,0,1,5.58,3,17.56,17.56,0,0,1,4.14,5.11,23.15,23.15,0,0,1,2.43,7.44,37.67,37.67,0,0,1,6.85-7.92A29.63,29.63,0,0,1,347.7,529a24,24,0,0,1,6.4-1.93,33,33,0,0,1,5.59-.37,28.16,28.16,0,0,1,8.16,1.38,17.57,17.57,0,0,1,6.49,3.82,17.3,17.3,0,0,1,4.28,6.54,26.28,26.28,0,0,1,1.53,9.46,50.93,50.93,0,0,1-.68,7.95q-.68,4.26-1.62,8.69t-2.12,8.82q-1.17,4.39-2.12,8.41T372,589.2a32,32,0,0,0-.68,6.05,9.34,9.34,0,0,0,1.58,5.6q1.58,2.19,5.81,2.26a11,11,0,0,0,5.23-1.1,13,13,0,0,0,4.06-3.29,25.65,25.65,0,0,0,3.29-5.14q1.49-3,2.93-6.59Z"/><path class="cls-11" d="M540.64,580a89.24,89.24,0,0,1-8.31,18.87,48.77,48.77,0,0,1-9,11.11,26.38,26.38,0,0,1-8.9,5.38,34.34,34.34,0,0,1-8.05,1.71,25.16,25.16,0,0,1-10.26-1,16.1,16.1,0,0,1-6.66-4.24,16.65,16.65,0,0,1-3.65-6.42,25.75,25.75,0,0,1-1.13-7.62,55.47,55.47,0,0,1,1.31-11q1.3-6.33,2.84-13t2.84-12.85a52.77,52.77,0,0,0,1.31-10.6c0-6.29-2.22-9.29-6.66-9a9.19,9.19,0,0,0-4.68,1.63,17,17,0,0,0-4,3.86,29.34,29.34,0,0,0-3.24,5.57,54.59,54.59,0,0,0-2.52,6.74q-6.26,29.84-12.52,59.63-13.29.56-26.59.87,6.76-31.93,13.52-63.92a19,19,0,0,0,.54-4.6,16.35,16.35,0,0,0-.27-3,7.44,7.44,0,0,0-.95-2.53,5.23,5.23,0,0,0-1.71-1.74,4.7,4.7,0,0,0-2.66-.59,10,10,0,0,0-5,1.49,15.5,15.5,0,0,0-4.15,3.79,27.64,27.64,0,0,0-3.29,5.55,55.86,55.86,0,0,0-2.52,6.7q-6.27,29.64-12.53,59.23-13.3.13-26.6,0,9.78-45.93,19.56-92,13.3-.06,26.6-.38l-2,9.57a34.73,34.73,0,0,1,5.95-5.49,31.06,31.06,0,0,1,5.86-3.31,27.11,27.11,0,0,1,5.59-1.71,36,36,0,0,1,5.14-.59,25.94,25.94,0,0,1,6.76.58,15.05,15.05,0,0,1,5.59,2.49,15.22,15.22,0,0,1,4.14,4.7,21.22,21.22,0,0,1,2.43,7.2,43.56,43.56,0,0,1,6.84-8.59,34,34,0,0,1,6.84-5.12,26.28,26.28,0,0,1,6.39-2.56,34.12,34.12,0,0,1,5.58-.92,27,27,0,0,1,8.14.58,15.52,15.52,0,0,1,6.48,3.18,15.11,15.11,0,0,1,4.27,6.12,25.15,25.15,0,0,1,1.53,9.31,52.15,52.15,0,0,1-.67,8q-.67,4.33-1.62,8.85t-2.11,9q-1.17,4.5-2.11,8.62t-1.62,7.63a33.07,33.07,0,0,0-.67,6.12,8.67,8.67,0,0,0,1.57,5.45q1.57,2,5.8,1.69a11.79,11.79,0,0,0,5.21-1.61,15,15,0,0,0,4-3.68,29.1,29.1,0,0,0,3.28-5.47q1.48-3.15,2.92-6.88Z"/><path class="cls-11" d="M607.86,575.13a20.21,20.21,0,0,0-.63,3.1,24.62,24.62,0,0,0-.18,2.95q0,3.87,1.83,5.07t5.68.62a13.12,13.12,0,0,0,2.23-.52,6.74,6.74,0,0,0,1.79-.91q-1.88,5.06-3.57,8.82a30.48,30.48,0,0,1-3.75,6.37,16.33,16.33,0,0,1-4.69,4.12,17.32,17.32,0,0,1-6.22,2q-7.61,1.09-12.26-2.75t-5.73-11.87a62.66,62.66,0,0,1-4.79,6.82,45.15,45.15,0,0,1-6.1,6.24A34.67,34.67,0,0,1,564,610a27.77,27.77,0,0,1-9,2.5,26.25,26.25,0,0,1-9.16-.55,17.34,17.34,0,0,1-7.81-4.24,22.33,22.33,0,0,1-5.48-8.64,38.94,38.94,0,0,1-2.07-13.65,80.43,80.43,0,0,1,1.26-13.6,92.94,92.94,0,0,1,10.38-29.19A64.87,64.87,0,0,1,551.28,530a49.88,49.88,0,0,1,11.89-9.42,39.14,39.14,0,0,1,14.61-4.79c5.2-.66,9-.27,11.33,1.21a6.92,6.92,0,0,1,3.54,6.17v1.35l2-10.07q13.2-1.84,26.38-3.92Q614.44,542.88,607.86,575.13ZM591,532.51a6.94,6.94,0,0,0-.36-2,6.2,6.2,0,0,0-1.21-2.17,5.68,5.68,0,0,0-2.28-1.58,7.39,7.39,0,0,0-3.67-.28,14,14,0,0,0-7.3,3.45,32.94,32.94,0,0,0-6.32,7.48,62.1,62.1,0,0,0-5.11,10.09,101,101,0,0,0-3.81,11.36,97,97,0,0,0-2.38,11.33,69,69,0,0,0-.81,9.84,25.23,25.23,0,0,0,1,8.07,9.56,9.56,0,0,0,2.38,4,4.82,4.82,0,0,0,3,1.31,17.33,17.33,0,0,0,2.87-.07,11.53,11.53,0,0,0,4.35-1.56,18.65,18.65,0,0,0,4.39-3.6,26.71,26.71,0,0,0,3.85-5.57,28.52,28.52,0,0,0,2.64-7.44Q586.57,553.87,591,532.51Z"/><path class="cls-13" d="M258.1,576.11a89.45,89.45,0,0,1-8.84,11.66A55.4,55.4,0,0,1,238,597.4a46.85,46.85,0,0,1-13.81,6,42.6,42.6,0,0,1-16.62.74,41.61,41.61,0,0,1-11.81-3.34,28.13,28.13,0,0,1-9-6.52,27.8,27.8,0,0,1-5.76-9.92,42,42,0,0,1-2-13.66,77.81,77.81,0,0,1,1.07-12.05,84.59,84.59,0,0,1,3.4-13.67,68.28,68.28,0,0,1,6.17-13.35,45.74,45.74,0,0,1,9.3-11.17,36.34,36.34,0,0,1,12.8-7.12,38.76,38.76,0,0,1,16.76-1.22,31.58,31.58,0,0,1,10.09,2.68,19.17,19.17,0,0,1,6.19,4.61,14.85,14.85,0,0,1,3.14,6,26.58,26.58,0,0,1,.85,6.7,30,30,0,0,1-3.5,14.49,33.43,33.43,0,0,1-9.38,10.93,40.83,40.83,0,0,1-13.49,6.63,45.25,45.25,0,0,1-15.85,1.58q-.18,2-.31,3.87t-.13,3.44a30.23,30.23,0,0,0,.85,7.8,12.82,12.82,0,0,0,2.51,5.06,10.57,10.57,0,0,0,4.12,2.94,23.31,23.31,0,0,0,5.78,1.43,30.36,30.36,0,0,0,9.9-.2,30,30,0,0,0,8.3-3,39.18,39.18,0,0,0,7.31-5.11q3.45-3,7-6.53Zm-50.13-19a22.19,22.19,0,0,0,10-1.63,25.29,25.29,0,0,0,8.51-5.71,28.52,28.52,0,0,0,5.87-8.81,27,27,0,0,0,2.2-10.84,13.67,13.67,0,0,0-1-5.6A4.19,4.19,0,0,0,230,522q-3.5-.42-6.86,2.52a32.27,32.27,0,0,0-6.32,8A65.16,65.16,0,0,0,211.6,544,97.82,97.82,0,0,0,208,557.11Z"/><path class="cls-13" d="M398.21,583.25a79.55,79.55,0,0,1-8.34,18,42.08,42.08,0,0,1-9,10.2,23.36,23.36,0,0,1-8.93,4.48,32.86,32.86,0,0,1-8.07.89,26.41,26.41,0,0,1-10.28-2.05,18.56,18.56,0,0,1-6.67-4.91,18.89,18.89,0,0,1-3.65-6.79,26.87,26.87,0,0,1-1.13-7.73,53.53,53.53,0,0,1,1.31-10.87q1.31-6.19,2.84-12.7t2.84-12.57a50.83,50.83,0,0,0,1.31-10.47c0-6.29-2.22-9.51-6.67-9.69a8.48,8.48,0,0,0-4.69,1.15,14.58,14.58,0,0,0-4,3.46,25.64,25.64,0,0,0-3.24,5.24,49.47,49.47,0,0,0-2.52,6.48q-6.26,29.21-12.52,58.37Q303.55,613,290.28,612q6.75-31.25,13.5-62.56a18.4,18.4,0,0,0,.54-4.55,16.83,16.83,0,0,0-.27-3.07,8.19,8.19,0,0,0-.94-2.63,6.09,6.09,0,0,0-1.71-1.92,5.08,5.08,0,0,0-2.65-.86,9.26,9.26,0,0,0-5,1,13.38,13.38,0,0,0-4.14,3.37,24.14,24.14,0,0,0-3.28,5.22,50.16,50.16,0,0,0-2.52,6.45q-6.25,29-12.5,58-13.26-1.21-26.5-2.68,9.74-44.94,19.49-90Q277.55,519,290.82,520l-2,9.37a29.77,29.77,0,0,1,5.94-4.89,27.44,27.44,0,0,1,5.85-2.72,25.29,25.29,0,0,1,5.58-1.15,35.17,35.17,0,0,1,5.13-.07,27,27,0,0,1,6.75,1.26,17,17,0,0,1,5.58,3.05,17.65,17.65,0,0,1,4.14,5.12,23.22,23.22,0,0,1,2.43,7.45,37.54,37.54,0,0,1,6.85-7.9,29.58,29.58,0,0,1,6.85-4.43,24,24,0,0,1,6.4-1.92,33,33,0,0,1,5.59-.35,28.15,28.15,0,0,1,8.16,1.4,17.63,17.63,0,0,1,6.49,3.84,17.35,17.35,0,0,1,4.28,6.55,26.35,26.35,0,0,1,1.53,9.46,50.86,50.86,0,0,1-.68,7.94q-.68,4.26-1.62,8.69T372,569.5q-1.17,4.38-2.12,8.4t-1.62,7.47a31.81,31.81,0,0,0-.68,6.05,9.36,9.36,0,0,0,1.58,5.61q1.58,2.19,5.81,2.27a11,11,0,0,0,5.23-1.09,12.92,12.92,0,0,0,4.06-3.27,25.49,25.49,0,0,0,3.29-5.14q1.49-3,2.93-6.58Z"/><path class="cls-13" d="M536.9,576.61a89,89,0,0,1-8.31,18.85,48.58,48.58,0,0,1-9,11.08,26.3,26.3,0,0,1-8.9,5.36,34.24,34.24,0,0,1-8.05,1.69,25.2,25.2,0,0,1-10.26-1,16.15,16.15,0,0,1-6.66-4.25,16.71,16.71,0,0,1-3.65-6.43,25.8,25.8,0,0,1-1.13-7.62,55.45,55.45,0,0,1,1.31-11q1.3-6.32,2.84-13t2.84-12.85a52.68,52.68,0,0,0,1.31-10.6c0-6.29-2.22-9.29-6.66-9a9.16,9.16,0,0,0-4.68,1.61,16.86,16.86,0,0,0-4,3.85,29.08,29.08,0,0,0-3.24,5.56,54.51,54.51,0,0,0-2.52,6.73q-6.26,29.83-12.52,59.6-13.29.52-26.59.8,6.76-31.91,13.52-63.89a19,19,0,0,0,.54-4.6,16.4,16.4,0,0,0-.27-3,7.46,7.46,0,0,0-.95-2.53,5.25,5.25,0,0,0-1.71-1.75,4.72,4.72,0,0,0-2.66-.6,10,10,0,0,0-5,1.47,15.48,15.48,0,0,0-4.15,3.77,27.5,27.5,0,0,0-3.29,5.54,55.52,55.52,0,0,0-2.52,6.69q-6.27,29.63-12.53,59.2-13.3.09-26.6-.06,9.78-45.9,19.56-91.94,13.3,0,26.6-.31l-2,9.57a34.51,34.51,0,0,1,5.95-5.48,31,31,0,0,1,5.86-3.3A27.24,27.24,0,0,1,445,523a36,36,0,0,1,5.14-.58,26,26,0,0,1,6.76.6,15.09,15.09,0,0,1,5.59,2.51,15.29,15.29,0,0,1,4.14,4.71,21.26,21.26,0,0,1,2.43,7.21,43.41,43.41,0,0,1,6.85-8.58,33.91,33.91,0,0,1,6.84-5.1,26.19,26.19,0,0,1,6.39-2.55,33.8,33.8,0,0,1,5.58-.9,27.1,27.1,0,0,1,8.14.6,15.57,15.57,0,0,1,6.48,3.2,15.19,15.19,0,0,1,4.27,6.13,25.18,25.18,0,0,1,1.53,9.31,52.22,52.22,0,0,1-.67,8q-.68,4.32-1.62,8.85t-2.11,9q-1.17,4.49-2.11,8.61T507,581.67a33,33,0,0,0-.68,6.12,8.68,8.68,0,0,0,1.57,5.45q1.57,2,5.8,1.7a11.75,11.75,0,0,0,5.22-1.6,14.93,14.93,0,0,0,4-3.67,29.07,29.07,0,0,0,3.28-5.46q1.48-3.14,2.92-6.87Z"/><path class="cls-13" d="M604.14,571.93a20.22,20.22,0,0,0-.63,3.1,24.88,24.88,0,0,0-.18,2.95q0,3.87,1.83,5.08c1.22.81,3.12,1,5.68.64a13.17,13.17,0,0,0,2.24-.52,6.78,6.78,0,0,0,1.79-.9q-1.88,5.05-3.58,8.81a30.32,30.32,0,0,1-3.75,6.36,16.29,16.29,0,0,1-4.7,4.1,17.33,17.33,0,0,1-6.22,2q-7.61,1.07-12.27-2.78t-5.73-11.89a62.24,62.24,0,0,1-4.8,6.81,45,45,0,0,1-6.1,6.23,34.51,34.51,0,0,1-7.49,4.79,27.74,27.74,0,0,1-9,2.48,26.27,26.27,0,0,1-9.16-.57,17.43,17.43,0,0,1-7.82-4.27,22.41,22.41,0,0,1-5.48-8.65,39,39,0,0,1-2.07-13.65,80.56,80.56,0,0,1,1.26-13.6,92.68,92.68,0,0,1,10.38-29.16,64.64,64.64,0,0,1,9.16-12.62,49.71,49.71,0,0,1,11.89-9.39A39.07,39.07,0,0,1,574,512.54c5.2-.65,9-.24,11.34,1.24a6.94,6.94,0,0,1,3.54,6.18q0,.67,0,1.35l2-10.06q13.21-1.8,26.39-3.85Q610.71,539.7,604.14,571.93Zm-16.92-42.66a7,7,0,0,0-.36-2,6.2,6.2,0,0,0-1.21-2.18,5.71,5.71,0,0,0-2.28-1.59,7.41,7.41,0,0,0-3.67-.29,13.93,13.93,0,0,0-7.31,3.43,32.8,32.8,0,0,0-6.32,7.46A62,62,0,0,0,561,544.22a100.53,100.53,0,0,0-3.81,11.35,96.64,96.64,0,0,0-2.38,11.32,69,69,0,0,0-.81,9.84,25.3,25.3,0,0,0,1,8.07,9.62,9.62,0,0,0,2.38,4,4.83,4.83,0,0,0,3,1.32,17.31,17.31,0,0,0,2.87-.06,11.51,11.51,0,0,0,4.35-1.55,18.63,18.63,0,0,0,4.39-3.59,26.63,26.63,0,0,0,3.85-5.56,28.48,28.48,0,0,0,2.64-7.43Q582.83,550.62,587.22,529.27Z"/></g></g></svg>