<?xml version="1.0" encoding="UTF-8"?>
<!DOCTYPE svg PUBLIC "-//W3C//DTD SVG 1.1//EN" "http://www.w3.org/Graphics/SVG/1.1/DTD/svg11.dtd">
<svg version="1.1" xmlns="http://www.w3.org/2000/svg" xmlns:xlink="http://www.w3.org/1999/xlink" x="0" y="0" width="180" height="48.2" viewBox="0, 0, 180, 48.2">
  <g id="Layer_1">
    <g>
      <g>
        <path d="M52.553,35.1 C52.153,35.1 51.853,35 51.553,34.8 C51.253,34.6 51.053,34.3 50.853,34 L50.853,36.9 L50.253,36.9 L50.253,30.3 L50.753,30.3 L50.753,31.2 C50.953,30.9 51.153,30.7 51.453,30.5 C51.753,30.3 52.053,30.2 52.453,30.2 C52.753,30.2 53.053,30.3 53.353,30.4 C53.653,30.5 53.853,30.7 54.053,30.9 C54.253,31.1 54.453,31.4 54.553,31.7 C54.653,32 54.753,32.3 54.753,32.6 C54.753,32.9 54.653,33.2 54.553,33.5 C54.453,33.8 54.353,34.1 54.153,34.3 C53.953,34.5 53.753,34.7 53.453,34.8 C53.153,35 52.853,35.1 52.553,35.1 z M52.353,34.6 C52.653,34.6 52.853,34.5 53.053,34.4 C53.253,34.3 53.453,34.1 53.553,34 C53.653,33.8 53.853,33.6 53.853,33.4 C53.953,33.2 53.953,32.9 53.953,32.7 C53.953,32.4 53.953,32.2 53.853,32 C53.753,31.8 53.653,31.6 53.453,31.4 C53.253,31.2 53.153,31.1 52.853,31 C52.653,30.9 52.453,30.8 52.153,30.8 C51.953,30.8 51.853,30.8 51.653,30.9 C51.453,31 51.353,31 51.153,31.2 C51.053,31.3 50.853,31.4 50.753,31.6 C50.653,31.7 50.553,31.9 50.553,32 L50.553,33.4 C50.653,33.6 50.753,33.7 50.853,33.9 C50.953,34.1 51.053,34.2 51.253,34.3 C51.353,34.4 51.553,34.5 51.753,34.5 C51.953,34.5 52.253,34.6 52.353,34.6 z" fill="#858585"/>
        <path d="M58.953,35.1 C58.653,35.1 58.253,35 58.053,34.9 C57.853,34.8 57.553,34.6 57.353,34.4 C57.153,34.2 56.953,33.9 56.853,33.6 C56.753,33.3 56.653,33 56.653,32.7 C56.653,32.4 56.753,32.1 56.853,31.8 C56.953,31.5 57.153,31.2 57.353,31 C57.553,30.8 57.853,30.6 58.053,30.5 C58.253,30.4 58.653,30.3 58.953,30.3 C59.253,30.3 59.553,30.4 59.853,30.5 C60.153,30.6 60.353,30.8 60.553,31 C60.753,31.2 60.953,31.5 61.053,31.8 C61.153,32.1 61.253,32.4 61.253,32.7 C61.253,33 61.153,33.3 61.053,33.6 C60.953,33.9 60.753,34.2 60.553,34.4 C60.353,34.6 60.053,34.8 59.853,34.9 C59.653,35 59.253,35.1 58.953,35.1 z M57.253,32.7 C57.253,33 57.253,33.2 57.353,33.4 C57.453,33.6 57.553,33.8 57.753,34 C57.953,34.2 58.053,34.3 58.253,34.4 C58.453,34.5 58.653,34.5 58.953,34.5 C59.153,34.5 59.453,34.5 59.653,34.4 C59.853,34.3 60.053,34.2 60.153,34 C60.353,33.8 60.453,33.6 60.553,33.4 C60.653,33.2 60.653,32.9 60.653,32.7 C60.653,32.4 60.653,32.2 60.553,32 C60.453,31.8 60.353,31.6 60.153,31.4 C59.953,31.2 59.853,31.1 59.653,31 C59.453,30.9 59.253,30.9 58.953,30.9 C58.753,30.9 58.453,30.9 58.253,31 C58.053,31.1 57.853,31.2 57.753,31.4 C57.553,31.6 57.453,31.8 57.353,32 C57.253,32.2 57.253,32.4 57.253,32.7 z" fill="#858585"/>
        <path d="M69.253,30.3 L69.853,30.3 L67.853,35 L67.353,35 L66.353,32.6 L65.353,35 L64.853,35 L62.853,30.3 L63.453,30.3 L65.153,34.4 L66.053,32.3 L65.253,30.4 L65.753,30.4 L66.353,31.9 L66.953,30.4 L67.453,30.4 L66.653,32.3 L67.553,34.4 L69.253,30.3 z" fill="#858585"/>
        <path d="M73.753,35.1 C73.453,35.1 73.053,35 72.853,34.9 C72.653,34.8 72.353,34.6 72.153,34.4 C71.953,34.2 71.753,33.9 71.653,33.6 C71.553,33.3 71.453,33 71.453,32.7 C71.453,32.4 71.553,32.1 71.653,31.8 C71.753,31.5 71.953,31.3 72.153,31 C72.353,30.7 72.653,30.6 72.853,30.5 C73.153,30.4 73.453,30.3 73.753,30.3 C74.053,30.3 74.453,30.4 74.653,30.5 C74.953,30.6 75.153,30.8 75.353,31 C75.553,31.2 75.753,31.5 75.853,31.8 C75.953,32.1 76.053,32.4 76.053,32.7 C76.053,32.7 76.053,32.8 76.053,32.8 C76.053,32.8 76.053,32.9 76.053,32.9 L72.053,32.9 C72.053,33.2 72.153,33.4 72.253,33.6 C72.353,33.8 72.453,34 72.653,34.2 C72.853,34.4 72.953,34.5 73.153,34.6 C73.353,34.7 73.553,34.7 73.753,34.7 C73.853,34.7 74.053,34.7 74.253,34.6 C74.453,34.5 74.553,34.5 74.653,34.4 C74.753,34.3 74.853,34.2 74.953,34.1 C75.053,34 75.153,33.9 75.153,33.8 L75.653,33.9 C75.553,34.1 75.453,34.2 75.353,34.4 C75.253,34.6 75.053,34.7 74.853,34.8 C74.653,34.9 74.453,35 74.253,35 C74.253,35.1 74.053,35.1 73.753,35.1 z M75.553,32.4 C75.553,32.1 75.453,31.9 75.353,31.7 C75.253,31.5 75.153,31.3 74.953,31.2 C74.753,31.1 74.653,30.9 74.453,30.8 C74.253,30.7 74.053,30.7 73.853,30.7 C73.653,30.7 73.453,30.7 73.253,30.8 C73.053,30.9 72.853,31 72.753,31.2 C72.553,31.4 72.453,31.5 72.353,31.7 C72.253,31.9 72.253,32.1 72.153,32.4 L75.553,32.4 z" fill="#858585"/>
        <path d="M80.653,30.9 C80.253,30.9 79.853,31 79.553,31.2 C79.253,31.4 79.053,31.7 78.953,32.1 L78.953,35 L78.353,35 L78.353,30.3 L78.953,30.3 L78.953,31.4 C79.153,31 79.353,30.8 79.653,30.6 C79.953,30.4 80.253,30.3 80.553,30.3 C80.553,30.3 80.653,30.3 80.653,30.3 L80.653,30.9 z" fill="#858585"/>
        <path d="M84.453,35.1 C84.153,35.1 83.753,35 83.553,34.9 C83.353,34.8 83.053,34.6 82.853,34.4 C82.653,34.2 82.453,33.9 82.353,33.6 C82.253,33.3 82.153,33 82.153,32.7 C82.153,32.4 82.253,32.1 82.353,31.8 C82.453,31.5 82.653,31.3 82.853,31 C83.053,30.7 83.353,30.6 83.553,30.5 C83.853,30.4 84.153,30.3 84.453,30.3 C84.753,30.3 85.153,30.4 85.353,30.5 C85.653,30.6 85.853,30.8 86.053,31 C86.253,31.2 86.453,31.5 86.553,31.8 C86.653,32.1 86.753,32.4 86.753,32.7 C86.753,32.7 86.753,32.8 86.753,32.8 C86.753,32.8 86.753,32.9 86.753,32.9 L82.753,32.9 C82.753,33.2 82.853,33.4 82.953,33.6 C83.053,33.8 83.153,34 83.353,34.2 C83.553,34.4 83.653,34.5 83.853,34.6 C84.053,34.7 84.253,34.7 84.453,34.7 C84.553,34.7 84.753,34.7 84.953,34.6 C85.153,34.5 85.253,34.5 85.353,34.4 C85.453,34.3 85.553,34.2 85.653,34.1 C85.753,34 85.853,33.9 85.853,33.8 L86.353,33.9 C86.253,34.1 86.153,34.2 86.053,34.4 C85.953,34.6 85.753,34.7 85.553,34.8 C85.353,34.9 85.153,35 84.953,35 C84.953,35.1 84.653,35.1 84.453,35.1 z M86.253,32.4 C86.253,32.1 86.153,31.9 86.053,31.7 C85.953,31.5 85.853,31.3 85.653,31.2 C85.453,31.1 85.353,30.9 85.153,30.8 C84.953,30.7 84.753,30.7 84.553,30.7 C84.353,30.7 84.153,30.7 83.953,30.8 C83.753,30.9 83.553,31 83.453,31.2 C83.253,31.4 83.153,31.5 83.053,31.7 C82.953,31.9 82.953,32.1 82.853,32.4 L86.253,32.4 z" fill="#858585"/>
        <path d="M90.853,35.1 C90.553,35.1 90.253,35 89.953,34.9 C89.653,34.8 89.453,34.6 89.253,34.4 C89.053,34.2 88.853,33.9 88.753,33.6 C88.653,33.3 88.553,33 88.553,32.7 C88.553,32.4 88.653,32.1 88.753,31.8 C88.853,31.5 89.053,31.2 89.153,31 C89.353,30.8 89.553,30.6 89.853,30.5 C90.153,30.4 90.353,30.3 90.753,30.3 C91.153,30.3 91.453,30.4 91.853,30.6 C92.153,30.8 92.353,31.1 92.553,31.4 L92.553,28.5 L93.153,28.5 L93.153,34.3 C93.153,34.5 93.253,34.6 93.353,34.6 L93.353,35.1 C93.253,35.1 93.153,35.1 93.153,35.1 C93.053,35.1 92.853,35.1 92.753,35 C92.653,34.9 92.553,34.8 92.553,34.7 L92.553,34.2 C92.353,34.5 92.153,34.7 91.753,34.9 C91.353,35.1 91.253,35.1 90.853,35.1 z M91.053,34.6 C91.253,34.6 91.353,34.6 91.553,34.5 C91.753,34.4 91.853,34.4 92.053,34.3 C92.253,34.2 92.353,34.1 92.453,33.9 C92.553,33.8 92.653,33.6 92.653,33.4 L92.653,31.9 C92.553,31.7 92.553,31.6 92.353,31.4 C92.253,31.3 92.153,31.1 91.953,31 C91.853,30.9 91.653,30.8 91.453,30.7 C91.253,30.6 91.153,30.6 90.953,30.6 C90.653,30.6 90.453,30.7 90.253,30.8 C90.053,30.9 89.853,31.1 89.753,31.2 C89.653,31.4 89.453,31.6 89.453,31.8 C89.353,32 89.353,32.3 89.353,32.5 C89.353,32.8 89.353,33 89.453,33.2 C89.553,33.4 89.653,33.6 89.853,33.8 C90.053,34 90.153,34.1 90.453,34.2 C90.553,34.5 90.753,34.6 91.053,34.6 z" fill="#858585"/>
        <path d="M101.653,35.1 C101.253,35.1 100.953,35 100.653,34.8 C100.353,34.6 100.053,34.4 99.953,34.1 L99.953,35 L99.353,35 L99.353,28.4 L99.953,28.4 L99.953,31.3 C100.153,31 100.453,30.7 100.753,30.5 C101.053,30.3 101.353,30.2 101.753,30.2 C102.053,30.2 102.353,30.3 102.653,30.4 C102.953,30.5 103.153,30.7 103.353,31 C103.553,31.2 103.653,31.5 103.753,31.8 C103.853,32.1 103.853,32.4 103.853,32.7 C103.853,33 103.753,33.3 103.653,33.6 C103.553,33.9 103.353,34.2 103.153,34.4 C102.953,34.6 102.753,34.8 102.453,34.9 C102.153,35 101.953,35.1 101.653,35.1 z M101.453,34.6 C101.753,34.6 101.953,34.5 102.153,34.4 C102.353,34.3 102.553,34.2 102.653,34 C102.753,33.8 102.953,33.6 103.053,33.4 C103.153,33.2 103.153,32.9 103.153,32.7 C103.153,32.5 103.153,32.2 103.053,32 C102.953,31.8 102.853,31.6 102.753,31.4 C102.653,31.2 102.453,31.1 102.253,31 C102.053,30.9 101.853,30.8 101.553,30.8 C101.353,30.8 101.153,30.8 101.053,30.9 C100.853,31 100.753,31 100.553,31.2 C100.453,31.3 100.253,31.4 100.153,31.6 C100.053,31.7 99.953,31.9 99.853,32 L99.853,33.5 C99.853,33.7 99.953,33.8 100.053,34 C100.153,34.1 100.253,34.3 100.453,34.4 C100.553,34.5 100.753,34.6 100.953,34.6 C101.153,34.5 101.353,34.6 101.453,34.6 z" fill="#858585"/>
        <path d="M106.253,36.5 C106.253,36.5 106.353,36.5 106.353,36.5 C106.353,36.5 106.453,36.5 106.453,36.5 C106.553,36.5 106.653,36.5 106.753,36.5 C106.853,36.5 106.853,36.4 106.953,36.3 C107.053,36.2 107.053,36.1 107.153,35.9 C107.253,35.7 107.353,35.4 107.453,35.1 L105.453,30.4 L106.053,30.4 L107.753,34.5 L109.353,30.4 L109.953,30.4 L107.553,36.5 C107.453,36.7 107.353,36.8 107.253,37 C107.053,37.1 106.853,37.2 106.653,37.2 C106.553,37.2 106.553,37.2 106.453,37.2 C106.353,37.2 106.353,37.2 106.253,37.2 L106.253,36.5 z" fill="#858585"/>
        <path d="M115.053,31.8 C115.053,31.4 115.153,31 115.253,30.7 C115.353,30.4 115.553,30 115.853,29.7 C116.153,29.4 116.453,29.2 116.853,29 C117.253,28.8 117.653,28.7 118.153,28.7 C118.753,28.7 119.253,28.8 119.653,29.1 C120.053,29.4 120.353,29.7 120.553,30.1 L120.053,30.4 C119.953,30.2 119.853,30 119.653,29.9 C119.453,29.8 119.353,29.6 119.153,29.5 C118.953,29.4 118.853,29.3 118.653,29.3 C118.453,29.3 118.253,29.2 118.153,29.2 C117.753,29.2 117.453,29.3 117.153,29.4 C116.853,29.6 116.653,29.8 116.453,30 C116.253,30.3 116.053,30.5 115.953,30.9 C115.853,31.2 115.753,31.5 115.753,31.9 C115.753,32.3 115.853,32.6 115.953,32.9 C116.053,33.2 116.253,33.5 116.453,33.8 C116.653,34 116.953,34.2 117.253,34.4 C117.553,34.5 117.853,34.6 118.253,34.6 C118.453,34.6 118.653,34.6 118.853,34.5 C119.053,34.5 119.253,34.4 119.353,34.3 C119.553,34.2 119.653,34.1 119.853,33.9 C120.053,33.8 120.153,33.6 120.253,33.4 L120.753,33.7 C120.653,33.9 120.553,34.2 120.353,34.3 C120.153,34.5 119.953,34.6 119.753,34.8 C119.553,34.9 119.253,35 119.053,35.1 C118.753,35.2 118.553,35.2 118.253,35.2 C117.853,35.2 117.453,35.1 117.053,34.9 C116.653,34.7 116.353,34.5 116.153,34.1 C115.853,33.8 115.653,33.4 115.553,33 C115.153,32.6 115.053,32.2 115.053,31.8 z" fill="#858585"/>
        <path d="M125.153,30.9 C124.753,30.9 124.353,31 124.053,31.2 C123.753,31.4 123.553,31.7 123.453,32.1 L123.453,35 L122.853,35 L122.853,30.3 L123.453,30.3 L123.453,31.4 C123.653,31 123.853,30.8 124.153,30.6 C124.453,30.4 124.753,30.3 125.053,30.3 C125.053,30.3 125.153,30.3 125.153,30.3 L125.153,30.9 z" fill="#858585"/>
        <path d="M128.253,35.1 C128.053,35.1 127.853,35.1 127.653,35 C127.453,34.9 127.253,34.8 127.153,34.7 C127.053,34.6 126.853,34.4 126.853,34.2 C126.753,34 126.753,33.8 126.753,33.6 C126.753,33.4 126.753,33.2 126.853,33 C126.953,32.8 127.053,32.7 127.253,32.5 C127.453,32.4 127.653,32.3 127.853,32.2 C128.053,32.1 128.353,32.1 128.653,32.1 C128.853,32.1 129.153,32.1 129.353,32.2 C129.553,32.3 129.853,32.3 130.053,32.4 L130.053,32 C130.053,31.6 129.953,31.3 129.653,31 C129.353,30.7 129.053,30.6 128.653,30.6 C128.453,30.6 128.153,30.6 127.953,30.7 C127.653,30.8 127.453,30.9 127.153,31.1 L126.953,30.7 C127.553,30.3 128.153,30.1 128.753,30.1 C129.353,30.1 129.853,30.3 130.153,30.6 C130.453,30.9 130.653,31.4 130.653,32 L130.653,34.1 C130.653,34.3 130.753,34.4 130.853,34.4 L130.853,34.9 C130.753,34.9 130.653,34.9 130.653,34.9 C130.453,34.9 130.353,34.9 130.253,34.8 C130.153,34.7 130.153,34.6 130.153,34.5 L130.153,34.1 C129.953,34.4 129.653,34.6 129.353,34.7 C129.053,35 128.653,35.1 128.253,35.1 z M128.453,34.6 C128.753,34.6 129.053,34.5 129.353,34.4 C129.653,34.3 129.853,34.1 129.953,33.9 C130.053,33.8 130.053,33.8 130.053,33.7 C130.053,33.6 130.053,33.6 130.053,33.5 L130.053,32.9 C129.853,32.8 129.653,32.8 129.453,32.7 C129.253,32.7 129.053,32.6 128.753,32.6 C128.353,32.6 127.953,32.7 127.653,32.9 C127.353,33.1 127.253,33.3 127.253,33.6 C127.253,33.7 127.253,33.9 127.353,34 C127.453,34.1 127.453,34.2 127.553,34.3 C127.653,34.4 127.753,34.5 127.953,34.5 C128.153,34.6 128.253,34.6 128.453,34.6 z" fill="#858585"/>
        <path d="M133.453,35 L133.453,30.8 L132.853,30.8 L132.853,30.3 L133.453,30.3 L133.453,30.2 C133.453,29.6 133.553,29.2 133.853,28.8 C134.053,28.5 134.453,28.3 134.853,28.3 C135.053,28.3 135.253,28.3 135.353,28.4 C135.453,28.5 135.653,28.5 135.853,28.6 L135.653,29 C135.553,28.9 135.453,28.9 135.353,28.8 C135.253,28.7 135.153,28.7 134.953,28.7 C134.653,28.7 134.453,28.8 134.253,29 C134.053,29.2 134.053,29.5 134.053,30 L134.053,30.1 L135.353,30.1 L135.353,30.6 L134.053,30.6 L134.053,34.8 L133.453,34.8 z" fill="#858585"/>
        <path d="M139.653,34.8 C139.653,34.8 139.553,34.8 139.453,34.9 C139.353,34.9 139.353,35 139.253,35 C139.153,35 139.053,35.1 138.953,35.1 C138.853,35.1 138.753,35.1 138.553,35.1 C138.453,35.1 138.253,35.1 138.153,35 C138.053,34.9 137.953,34.9 137.853,34.8 C137.753,34.7 137.653,34.6 137.653,34.5 C137.553,34.4 137.553,34.3 137.553,34.1 L137.553,30.7 L136.953,30.7 L136.953,30.2 L137.553,30.2 L137.553,28.6 L138.153,28.6 L138.153,30.2 L139.253,30.2 L139.253,30.7 L138.153,30.7 L138.153,33.9 C138.153,34.1 138.253,34.2 138.353,34.3 C138.453,34.4 138.553,34.4 138.753,34.4 C138.953,34.4 139.053,34.4 139.253,34.3 C139.353,34.2 139.453,34.2 139.553,34.2 L139.653,34.8 z" fill="#858585"/>
        <path d="M143.553,35.1 C143.253,35.1 142.853,35 142.653,34.9 C142.453,34.8 142.153,34.6 141.953,34.4 C141.753,34.2 141.553,33.9 141.453,33.6 C141.353,33.3 141.253,33 141.253,32.7 C141.253,32.4 141.353,32.1 141.453,31.8 C141.553,31.5 141.753,31.3 141.953,31 C142.153,30.7 142.453,30.6 142.653,30.5 C142.953,30.4 143.253,30.3 143.553,30.3 C143.853,30.3 144.253,30.4 144.453,30.5 C144.753,30.6 144.953,30.8 145.153,31 C145.353,31.2 145.553,31.5 145.653,31.8 C145.753,32.1 145.853,32.4 145.853,32.7 C145.853,32.7 145.853,32.8 145.853,32.8 C145.853,32.8 145.853,32.9 145.853,32.9 L141.853,32.9 C141.853,33.2 141.953,33.4 142.053,33.6 C142.153,33.8 142.253,34 142.453,34.2 C142.653,34.4 142.753,34.5 142.953,34.6 C143.153,34.7 143.353,34.7 143.553,34.7 C143.653,34.7 143.853,34.7 144.053,34.6 C144.253,34.5 144.353,34.5 144.453,34.4 C144.553,34.3 144.653,34.2 144.753,34.1 C144.853,34 144.953,33.9 144.953,33.8 L145.453,33.9 C145.353,34.1 145.253,34.2 145.153,34.4 C145.053,34.6 144.853,34.7 144.653,34.8 C144.453,34.9 144.253,35 144.053,35 C144.053,35.1 143.853,35.1 143.553,35.1 z M145.353,32.4 C145.353,32.1 145.253,31.9 145.153,31.7 C145.053,31.5 144.953,31.3 144.753,31.2 C144.553,31.1 144.453,30.9 144.253,30.8 C144.053,30.7 143.853,30.7 143.653,30.7 C143.453,30.7 143.253,30.7 143.053,30.8 C142.853,30.9 142.653,31 142.553,31.2 C142.353,31.4 142.253,31.5 142.153,31.7 C142.053,31.9 142.053,32.1 141.953,32.4 L145.353,32.4 z" fill="#858585"/>
        <path d="M150.453,30.9 C150.053,30.9 149.653,31 149.353,31.2 C149.053,31.4 148.853,31.7 148.753,32.1 L148.753,35 L148.153,35 L148.153,30.3 L148.753,30.3 L148.753,31.4 C148.953,31 149.153,30.8 149.453,30.6 C149.753,30.4 150.053,30.3 150.353,30.3 C150.353,30.3 150.453,30.3 150.453,30.3 L150.453,30.9 z" fill="#858585"/>
        <path d="M155.453,31.8 C155.453,31.4 155.553,31 155.653,30.7 C155.753,30.4 155.953,30 156.253,29.7 C156.553,29.4 156.853,29.2 157.253,29 C157.653,28.8 158.053,28.7 158.553,28.7 C159.153,28.7 159.653,28.8 160.053,29.1 C160.453,29.4 160.753,29.7 160.953,30.1 L160.453,30.4 C160.353,30.2 160.253,30 160.053,29.9 C159.853,29.8 159.753,29.6 159.553,29.5 C159.353,29.4 159.253,29.3 159.053,29.3 C158.853,29.3 158.653,29.2 158.553,29.2 C158.153,29.2 157.853,29.3 157.553,29.4 C157.253,29.6 157.053,29.8 156.853,30 C156.653,30.3 156.453,30.5 156.353,30.9 C156.253,31.2 156.153,31.5 156.153,31.9 C156.153,32.3 156.253,32.6 156.353,32.9 C156.453,33.2 156.653,33.5 156.853,33.8 C157.053,34 157.353,34.2 157.653,34.4 C157.953,34.5 158.253,34.6 158.653,34.6 C158.853,34.6 159.053,34.6 159.253,34.5 C159.453,34.5 159.653,34.4 159.753,34.3 C159.953,34.2 160.053,34.1 160.253,33.9 C160.453,33.8 160.553,33.6 160.653,33.4 L161.153,33.7 C161.053,33.9 160.953,34.2 160.753,34.3 C160.553,34.5 160.353,34.6 160.153,34.8 C159.953,34.9 159.653,35 159.453,35.1 C159.153,35.2 158.953,35.2 158.653,35.2 C158.253,35.2 157.853,35.1 157.453,34.9 C157.053,34.7 156.753,34.5 156.553,34.1 C156.253,33.8 156.053,33.4 155.953,33 C155.553,32.6 155.453,32.2 155.453,31.8 z" fill="#858585"/>
        <path d="M168.953,35 L168.953,29.7 L166.653,33.8 L166.253,33.8 L163.953,29.7 L163.953,35 L163.353,35 L163.353,28.6 L163.953,28.6 L166.453,33 L168.953,28.6 L169.553,28.6 L169.553,35 L168.953,35 z" fill="#858585"/>
        <path d="M176.253,29.8 C176.053,29.6 175.853,29.4 175.553,29.3 C175.253,29.2 174.953,29.1 174.553,29.1 C173.953,29.1 173.553,29.2 173.353,29.4 C173.053,29.6 172.953,29.9 172.953,30.3 C172.953,30.5 172.953,30.7 173.053,30.8 C173.153,30.9 173.253,31 173.353,31.1 C173.453,31.2 173.653,31.3 173.953,31.3 C174.153,31.4 174.453,31.4 174.753,31.5 C175.053,31.6 175.453,31.7 175.653,31.7 C175.953,31.8 176.153,31.9 176.353,32 C176.553,32.1 176.653,32.3 176.753,32.5 C176.853,32.7 176.953,32.9 176.953,33.2 C176.953,33.5 176.853,33.7 176.753,34 C176.653,34.3 176.453,34.4 176.253,34.5 C176.053,34.6 175.853,34.8 175.553,34.8 C175.253,34.9 174.953,34.9 174.653,34.9 C173.653,34.9 172.853,34.6 172.053,34 L172.353,33.5 C172.453,33.6 172.653,33.7 172.753,33.8 C172.853,33.9 173.053,34 173.253,34.1 C173.453,34.2 173.653,34.2 173.853,34.3 C174.053,34.3 174.353,34.4 174.553,34.4 C175.053,34.4 175.453,34.3 175.753,34.1 C176.053,33.9 176.153,33.6 176.153,33.3 C176.153,33.1 176.153,32.9 176.053,32.8 C175.953,32.7 175.853,32.5 175.653,32.4 C175.453,32.3 175.253,32.2 175.053,32.1 C174.853,32 174.553,32 174.253,31.9 C173.953,31.8 173.653,31.7 173.353,31.7 C173.053,31.6 172.853,31.5 172.753,31.4 C172.553,31.3 172.453,31.1 172.353,30.9 C172.253,30.7 172.253,30.5 172.253,30.2 C172.253,29.9 172.353,29.6 172.453,29.4 C172.553,29.2 172.753,29 172.953,28.8 C173.153,28.6 173.353,28.5 173.653,28.4 C173.953,28.3 174.253,28.3 174.553,28.3 C174.953,28.3 175.353,28.4 175.653,28.5 C175.953,28.6 176.253,28.8 176.553,29 L176.253,29.8 z" fill="#858585"/>
      </g>
      <g>
        <path d="M96.353,11 C92.653,11 89.753,14 89.753,17.6 C89.753,21.2 92.753,24.2 96.353,24.2 C100.053,24.2 102.953,21.2 102.953,17.6 C102.953,14 100.053,11 96.353,11 z M94.253,21.1 L94.253,14.3 L100.253,17.7 L94.253,21.1 z" fill="#858585"/>
        <g>
          <path d="M53.553,24 L48.753,11.4 L50.953,11.4 L53.353,17.8 C54.253,20.3 54.853,21.8 54.853,21.8 L54.853,21.8 C54.853,21.8 55.353,20.3 56.353,17.9 L58.753,11.4 L60.853,11.4 L56.053,24 L53.553,24 z" fill="#858585"/>
          <path d="M62.253,11.4 L64.253,11.4 L64.253,24 L62.253,24 L62.253,11.4 z" fill="#858585"/>
          <path d="M71.253,11.4 C75.153,11.4 77.953,13.9 77.953,17.8 C77.953,21.7 75.153,24.1 71.353,24.1 L66.553,24.1 L66.553,11.4 L71.253,11.4 z M71.253,22.1 C73.753,22.1 75.953,20.7 75.953,17.7 C75.953,14.7 73.753,13.2 71.153,13.2 L68.553,13.2 L68.553,22.1 L71.253,22.1 z" fill="#858585"/>
          <path d="M79.653,11.4 L88.353,11.4 L88.353,13.3 L81.653,13.3 L81.653,16.6 L86.853,16.6 L86.853,18.5 L81.653,18.5 L81.653,22.2 L88.453,22.2 L88.453,24.1 L79.653,24.1 L79.653,11.4 z" fill="#858585"/>
          <path d="M120.253,20.4 C119.253,22.8 117.053,24.2 114.353,24.2 C110.653,24.2 107.853,21.6 107.853,17.6 C107.853,13.7 110.653,11.1 114.353,11.1 C117.253,11.1 119.353,12.7 120.153,14.6 L118.153,15.1 C117.653,14.2 116.453,12.9 114.253,12.9 C111.653,12.9 109.853,14.7 109.853,17.6 C109.853,20.5 111.753,22.3 114.253,22.3 C116.153,22.3 117.653,21.3 118.353,19.8 L120.253,20.4 z" fill="#858585"/>
          <path d="M121.953,11.4 L130.653,11.4 L130.653,13.3 L123.953,13.3 L123.953,16.6 L129.153,16.6 L129.153,18.5 L123.953,18.5 L123.953,22.2 L130.753,22.2 L130.753,24.1 L121.953,24.1 L121.953,11.4 z" fill="#858585"/>
          <path d="M134.653,14.6 L134.653,14.6 C134.653,14.6 134.653,16.1 134.653,17.7 L134.653,24 L132.653,24 L132.653,11.4 L134.653,11.4 L141.353,20.6 L141.453,20.6 C141.453,20.6 141.453,19.1 141.453,17.6 L141.453,11.3 L143.453,11.3 L143.453,23.9 L141.453,23.9 L134.653,14.6 z" fill="#858585"/>
          <path d="M151.253,13.2 L151.253,24 L149.253,24 L149.253,13.2 L145.053,13.2 L145.053,11.3 L155.353,11.3 L155.353,13.2 L151.253,13.2 z" fill="#858585"/>
          <path d="M157.153,11.4 L165.853,11.4 L165.853,13.3 L159.153,13.3 L159.153,16.6 L164.353,16.6 L164.353,18.5 L159.153,18.5 L159.153,22.2 L165.953,22.2 L165.953,24.1 L157.153,24.1 L157.153,11.4 z" fill="#858585"/>
          <path d="M172.053,19.3 C171.853,19.3 171.353,19.3 171.053,19.3 L169.753,19.3 L169.753,24 L167.753,24 L167.753,11.4 L171.953,11.4 C174.953,11.4 176.753,12.9 176.753,15.4 C176.753,17.3 175.753,18.5 174.053,18.9 L177.053,24 L174.653,24 L172.053,19.3 z M172.153,17.7 C173.753,17.7 174.753,17.1 174.753,15.5 C174.753,14 173.753,13.2 172.053,13.2 L169.753,13.2 L169.753,17.7 L172.153,17.7 z" fill="#858585"/>
        </g>
      </g>
    </g>
    <path d="M36.347,12.2 L23.447,4.8 C21.847,3.9 19.947,3.9 18.447,4.8 L5.447,12.2 C3.847,13.1 2.947,14.8 2.947,16.6 L2.947,31.5 C2.947,33.3 3.947,35 5.447,35.9 L18.347,43.4 C19.947,44.3 21.847,44.3 23.347,43.4 L36.247,35.9 C37.847,35 38.747,33.3 38.747,31.5 L38.747,16.6 C38.847,14.8 37.847,13.1 36.347,12.2 M32.747,20.8 C32.747,20.9 32.647,21 32.547,21.1 L21.747,27.3 C21.347,27.5 20.847,27.2 20.847,26.8 L20.847,23.5 C20.847,23.2 21.047,22.8 21.347,22.7 L27.547,19.1 C27.447,19 27.347,19 27.247,18.9 L22.147,16 C21.347,15.5 20.447,15.5 19.647,16 L14.547,18.9 C13.747,19.4 13.247,20.2 13.247,21.1 L13.247,27 C13.247,27.9 13.747,28.7 14.547,29.2 L19.647,32.1 C20.447,32.6 21.347,32.6 22.147,32.1 L32.547,26.1 C32.647,26 32.747,26.1 32.747,26.2 L32.747,28.7 C32.747,30.1 32.047,31.3 30.847,32 L22.747,36.7 C21.547,37.4 20.147,37.4 18.947,36.7 L10.847,32 C9.647,31.3 8.947,30.1 8.947,28.7 L8.947,19.3 C8.947,17.9 9.647,16.7 10.847,16 L18.947,11.3 C20.147,10.6 21.547,10.6 22.747,11.3 L30.847,16 C32.047,16.7 32.747,17.9 32.747,19.3 L32.747,20.8 z" fill="#F8991D"/>
  </g>
</svg>
